<svg viewBox="0 0 24 24"><path d="M15.0009 10.9999C13.8979 10.9999 13.001 10.1029 13.001 8.99995C13.001 7.89698 13.8979 7 15.0009 7C16.1039 7 17.0009 7.89698 17.0009 8.99995C17.0009 10.1029 16.1039 10.9999 15.0009 10.9999ZM15.0009 7.99998C14.4499 7.99998 14.0009 8.44897 14.0009 8.99995C14.0009 9.55094 14.4499 9.99993 15.0009 9.99993C15.5519 9.99993 16.0009 9.55094 16.0009 8.99995C16.0009 8.44897 15.5519 7.99998 15.0009 7.99998ZM7.50112 10.9999C7.33912 10.9999 7.18112 10.9219 7.08413 10.7769C6.93113 10.5469 6.99313 10.2369 7.22312 10.0839L10.2231 8.08397C10.444 7.93698 10.741 7.98798 10.9 8.19997L12.4 10.1999C12.566 10.4209 12.521 10.7339 12.3 10.8999C12.079 11.0659 11.766 11.0209 11.6 10.7999L10.384 9.17795L7.77811 10.9159C7.69311 10.9729 7.59611 10.9999 7.50112 10.9999ZM19.5008 14.9998C19.3488 14.9998 19.1998 14.9308 19.1008 14.8008C19.0868 14.7828 17.7089 12.9999 15.4999 12.9999C14.3559 12.9999 13.31 13.4648 12.203 13.9568C11.049 14.4698 9.85605 14.9998 8.50008 14.9998C5.78115 14.9998 4.16719 12.8899 4.10019 12.7999C3.93419 12.5789 3.97919 12.2659 4.20019 12.0999C4.42118 11.9339 4.73417 11.9789 4.90017 12.1999C4.91317 12.2169 6.29114 13.9998 8.50008 13.9998C9.64406 13.9998 10.69 13.5348 11.797 13.0429C12.951 12.5299 14.1439 11.9999 15.4999 11.9999C18.2189 11.9999 19.8328 14.1098 19.8998 14.1998C20.0658 14.4208 20.0208 14.7338 19.7998 14.8998C19.7098 14.9668 19.6048 14.9998 19.4998 14.9998H19.5008ZM19.5008 17.9997C19.3488 17.9997 19.1998 17.9307 19.1008 17.8007C19.0868 17.7827 17.7089 15.9998 15.4999 15.9998C14.3559 15.9998 13.31 16.4648 12.203 16.9568C11.049 17.4698 9.85605 17.9997 8.50008 17.9997C5.78115 17.9997 4.16719 15.8898 4.10019 15.7998C3.93419 15.5788 3.97919 15.2658 4.20019 15.0998C4.42118 14.9338 4.73417 14.9788 4.90017 15.1998C4.91317 15.2168 6.29114 16.9998 8.50008 16.9998C9.64406 16.9998 10.69 16.5348 11.797 16.0428C12.951 15.5298 14.1439 14.9998 15.4999 14.9998C18.2189 14.9998 19.8328 17.1098 19.8998 17.1998C20.0658 17.4208 20.0208 17.7337 19.7998 17.8997C19.7098 17.9667 19.6048 17.9997 19.4998 17.9997H19.5008Z" fill="currentColor"></path></svg>